<svg width="250" height="250" viewBox="0 0 250 250" fill="none" xmlns="http://www.w3.org/2000/svg">
<path d="M60.7704 218.989L60.7573 218.979C60.2312 218.61 59.5789 218.406 58.9062 218.406C58.4963 218.406 58.08 218.484 57.6739 218.646L60.7704 218.989ZM60.7704 218.989L60.7836 218.998C79.5961 232.012 101.82 238.875 125 238.875C187.798 238.875 238.875 187.798 238.875 125C238.875 62.2022 187.798 11.125 125 11.125C62.2022 11.125 11.125 62.2022 11.125 125C11.125 148.18 17.9884 170.404 31.0023 189.216L31.0052 189.221C31.6232 190.112 31.7651 191.287 31.3513 192.333C31.3507 192.335 31.35 192.336 31.3494 192.338L17.6667 226.482L13.7541 236.246L23.5176 232.333L57.6713 218.647L60.7704 218.989ZM23.6774 193.673L24.5395 191.521L23.2871 189.569C10.9933 170.414 4.5 148.181 4.5 125C4.5 58.5634 58.5634 4.5 125 4.5C191.437 4.5 245.5 58.5634 245.5 125C245.5 191.437 191.437 245.5 125 245.5C101.819 245.5 79.586 239.007 60.4305 226.713L58.4792 225.461L56.3268 226.323L9.07119 245.25C9.06765 245.251 9.06411 245.253 9.06057 245.254C8.61472 245.428 8.20704 245.5 7.8125 245.5C6.94879 245.5 6.10115 245.159 5.47886 244.537C4.5388 243.597 4.24875 242.193 4.74222 240.949C4.74272 240.947 4.74323 240.946 4.74374 240.945L23.6774 193.673Z" fill="white" stroke="white" stroke-width="9"/>
<path d="M235 146.667V165C235 207.477 185.644 238.333 124.992 238.333C64.3402 238.333 38.3333 231.667 15 176.296L6.66666 146.667C34.1665 146.667 42.4998 154.963 70.0004 154.963C97.501 154.963 97.5002 146.667 124.992 146.667C152.501 146.667 152.501 154.963 180 154.963C207.5 154.963 207.5 146.667 235 146.667Z" fill="white"/>
<path d="M163.277 43.405C163.683 41.2292 161.829 39.3947 160.02 40.1886L81.5706 74.6439C80.6265 75.0586 80.002 76.0998 80 77.2625C79.9981 78.4253 80.619 79.4693 81.5618 79.8882L103.6 89.6808V120.524C103.6 121.825 104.376 122.956 105.477 123.257C106.57 123.556 107.709 122.958 108.222 121.788L117.336 100.979L139.58 119.971C140.933 121.126 142.877 120.392 143.37 118.535C164.138 40.1948 163.24 43.6018 163.277 43.405V43.405ZM143.912 53.2768L105.695 84.5896L89.252 77.2833L143.912 53.2768ZM108.483 89.2023L141.794 61.9084C113.13 96.6988 114.627 94.8676 114.502 95.0612C114.316 95.3486 114.825 94.2283 108.483 108.709V89.2023ZM139.709 113.086L120.13 96.3686L155.532 53.4004L139.709 113.086Z" fill="white"/>
<path d="M31.6667 193.333L15 235L55 221.667L31.6667 193.333Z" fill="white" stroke="white"/>
</svg>
